<?xml version="1.0" encoding="UTF-8"?>
<svg id="Layer_1" xmlns="http://www.w3.org/2000/svg" version="1.1" viewBox="0 0 300 150">
  <!-- Generator: Adobe Illustrator 29.1.0, SVG Export Plug-In . SVG Version: 2.1.0 Build 142)  -->
  <defs>
    <style>
      .st0 {
        fill: #fff;
      }

      .st1 {
        fill: #00a651;
      }

      .st2 {
        fill: #231f20;
      }
    </style>
  </defs>
  <g id="background">
    <rect class="st0" x="-.4" y=".4" width="300" height="149.8"/>
  </g>
  <g id="måtter">
    <polygon class="st1" points="107.6 17.4 97.4 21.4 293.9 45.6 299.6 37.8 107.6 17.4"/>
    <polygon class="st1" points="89.6 24.4 78.5 28.7 283.1 60.5 290.5 50.3 89.6 24.4"/>
    <polygon class="st1" points="69.9 32 51.4 39.2 265 85.4 277.3 68.4 69.9 32"/>
    <polygon class="st1" points="41.4 43.1 257.8 95.2 240.2 119.4 20.5 51.1 41.4 43.1"/>
    <polygon class="st1" points="6 56.8 228.8 135.1 217.8 150.2 162.1 150.2 -.4 85.4 -.4 59.3 6 56.8"/>
    <polygon class="st1" points="103.8 150.2 -.4 107.9 -.4 150.2 103.8 150.2"/>
    <g id="Layer_5">
      <polygon class="st0" points="139.2 20.7 -.4 99.6 -.4 103.5 140.6 20.9 139.2 20.7"/>
      <polygon class="st0" points="27.8 150.2 192.4 26.4 195.9 26.4 34.3 150.2 27.8 150.2"/>
      <polygon class="st0" points="256.1 33.2 136.4 150.2 142.3 150.2 257.8 33.3 256.1 33.2"/>
    </g>
  </g>
  <g id="ppl">
    <g>
      <circle class="st2" cx="269.1" cy="49.3" r="9.8"/>
      <rect class="st2" x="259.7" y="64" width="18.6" height="36.7" rx="5" ry="5"/>
      <rect class="st2" x="259.7" y="86.2" width="9.4" height="36.7" rx="4.5" ry="4.5"/>
      <rect class="st2" x="254.4" y="64" width="29.2" height="34" rx="5" ry="5"/>
      <rect class="st2" x="269.1" y="86.2" width="9.4" height="36.7" rx="4.5" ry="4.5"/>
    </g>
    <g>
      <circle class="st2" cx="42.8" cy="6.4" r="6"/>
      <rect class="st2" x="37.1" y="15.3" width="11.4" height="22.4" rx="5" ry="5"/>
      <rect class="st2" x="37.1" y="28.9" width="5.7" height="22.4" rx="2.7" ry="2.7"/>
      <rect class="st2" x="33.8" y="15.3" width="17.9" height="20.8" rx="5" ry="5"/>
      <rect class="st2" x="42.8" y="28.9" width="5.7" height="22.4" rx="2.7" ry="2.7"/>
    </g>
  </g>
</svg>