<?xml version="1.0" encoding="UTF-8"?>
<svg xmlns="http://www.w3.org/2000/svg" version="1.1" xmlns:xlink="http://www.w3.org/1999/xlink" viewBox="0 0 300 200">
  <!-- Generator: Adobe Illustrator 29.1.0, SVG Export Plug-In . SVG Version: 2.1.0 Build 142)  -->
  <defs>
    <style>
      .st0 {
        fill: #fff;
      }

      .st1 {
        fill: #00a651;
      }

      .st2 {
        fill: #231f20;
      }

      .st3 {
        display: none;
      }

      .st4 {
        fill: none;
        stroke: #00a651;
        stroke-miterlimit: 10;
      }

      .st5 {
        opacity: .5;
      }
    </style>
  </defs>
  <g id="background">
    <rect class="st0" width="300" height="149.8"/>
  </g>
  <g id="Layer_2" class="st3">
    <image class="st5" width="902" height="665" transform="translate(14.4) scale(.3)" xlink:href="bane-1.png"/>
  </g>
  <g id="guides" class="st3">
    <line class="st4" x1="286.7" y1="92.6" x2="208.5" y2="200"/>
    <polyline class="st4" points="0 113.1 103.2 73.1 286.7 92.6"/>
  </g>
  <g id="måtter">
    <polygon class="st1" points="108 17 97.8 21 294.3 45.2 300 37.4 108 17"/>
    <polygon class="st1" points="90 24 78.9 28.3 283.5 60.1 290.9 49.9 90 24"/>
    <polygon class="st1" points="70.3 31.6 51.8 38.8 265.4 85 277.7 68 70.3 31.6"/>
    <polygon class="st1" points="41.8 42.7 258.2 94.8 240.6 119 20.9 50.7 41.8 42.7"/>
    <polygon class="st1" points="6.4 56.4 229.2 134.7 218.2 149.8 162.5 149.8 0 85 0 58.9 6.4 56.4"/>
    <polygon class="st1" points="104.2 149.8 0 107.5 0 149.8 104.2 149.8"/>
    <g id="Layer_5">
      <polygon class="st0" points="139.6 20.3 0 99.2 0 103.1 141 20.5 139.6 20.3"/>
      <polygon class="st0" points="28.2 149.8 192.8 26 196.3 26 34.7 149.8 28.2 149.8"/>
      <polygon class="st0" points="256.5 32.8 136.8 149.8 142.7 149.8 258.2 32.9 256.5 32.8"/>
    </g>
  </g>
  <g id="ppl">
    <g>
      <circle class="st2" cx="269.5" cy="48.9" r="9.8"/>
      <rect class="st2" x="260.1" y="63.6" width="18.6" height="36.7" rx="5" ry="5"/>
      <rect class="st2" x="260.1" y="85.8" width="9.4" height="36.7" rx="4.5" ry="4.5"/>
      <rect class="st2" x="254.8" y="63.6" width="29.2" height="34" rx="5" ry="5"/>
      <rect class="st2" x="269.5" y="85.8" width="9.4" height="36.7" rx="4.5" ry="4.5"/>
    </g>
    <g>
      <circle class="st2" cx="43.2" cy="6" r="6"/>
      <rect class="st2" x="37.5" y="14.9" width="11.4" height="22.4" rx="5" ry="5"/>
      <rect class="st2" x="37.5" y="28.5" width="5.7" height="22.4" rx="2.7" ry="2.7"/>
      <rect class="st2" x="34.2" y="14.9" width="17.9" height="20.8" rx="5" ry="5"/>
      <rect class="st2" x="43.2" y="28.5" width="5.7" height="22.4" rx="2.7" ry="2.7"/>
    </g>
  </g>
</svg>