<?xml version="1.0" encoding="UTF-8"?>
<svg xmlns="http://www.w3.org/2000/svg" version="1.1" viewBox="0 0 500 1000">
  <!-- Generator: Adobe Illustrator 29.1.0, SVG Export Plug-In . SVG Version: 2.1.0 Build 142)  -->
  <defs>
    <style>
      .st0 {
        fill: #2e3192;
        stroke: #2e3192;
        stroke-miterlimit: 10;
      }

      .st1 {
        fill: #ffaeae;
      }

      .st2 {
        display: none;
      }

      .st3 {
        fill: #f7d2ce;
      }
    </style>
  </defs>
  <g id="Layer_1" class="st2">
    <line class="st0" x1="357.4" y1="1000" x2="357.4"/>
  </g>
  <g id="Layer_2" class="st2">
    <g>
      <path class="st3" d="M391.9,1000h-69c0-10.1-6.6-20.9-17.4-37.7-18.2-28.2-43-66.9-30.4-125.7,14.2-65.8,53-96.7,81.3-119.2,24.3-19.3,36.1-29.6,38.9-50.8,9.3-71.6-45.4-97.3-135.4-133.4-34.5-13.8-70.1-28.1-99.9-47.5-27.5-17.9-50.3-44.1-65.8-75.8-15.6-31.8-22.7-66.8-20.7-101.4,2-33.9,12.9-66.7,31.8-94.8,20.7-30.9,50.4-56.1,88.2-74.9,50.6-25.1,86.5-50.8,106.9-76.3,15.6-19.5,22.5-38.7,22.5-62.4h69c0,39.3-12.3,73.8-37.6,105.5-27.1,33.9-69.6,64.9-130.1,95-50,24.9-79.1,64.6-81.8,111.9-2.6,45.8,19.6,92.2,55.3,115.4,24.1,15.7,55.1,28.1,87.9,41.3,44.2,17.7,89.9,36.1,124.5,65.2,43.1,36.3,61.2,83.9,53.7,141.3-6.5,49.9-37.3,74.3-64.4,95.9-25.7,20.4-47.8,38-56.8,79.7-6.7,31,5.5,49.9,20.9,73.9,13.3,20.7,28.4,44.1,28.4,75Z"/>
      <path class="st1" d="M374.7,1000h-34.5c0-15.7-9.3-30.2-20.2-47-17.5-27.1-39.2-60.9-28-112.8,12.9-59.8,47.4-87.3,75.2-109.4,23.2-18.4,41.5-33,45.3-62.1,5.2-39.9-6.1-70-35.7-95-28.2-23.7-70-40.5-110.4-56.7-33.7-13.5-68.5-27.5-96.9-45.9-24.9-16.2-45.6-40-59.7-68.9-14.3-29.1-20.8-61.2-19-92.9,1.8-30.9,11.8-60.7,28.9-86.2,19-28.4,46.5-51.6,81.6-69.1,53.6-26.6,90.4-53.1,112.7-80.9,18-22.4,26.3-45.7,26.3-73.2h34.5c0,73.6-48.8,130.7-158.1,185-55.8,27.7-88.3,72.6-91.4,126.4-3,51.8,22.4,104.4,63.1,130.9,25.5,16.6,57.3,29.3,90.9,42.8,42.9,17.2,87.3,35,119.8,62.3,38.9,32.8,54.5,73.9,47.7,125.8-5.6,43-32.3,64.2-58,84.6-27.1,21.5-52.7,41.9-62.9,89.6-8.2,37.9,7.1,61.7,23.3,86.8,12.6,19.6,25.6,39.9,25.6,65.7Z"/>
    </g>
  </g>
  <g id="Layer_5">
    <g>
      <path class="st3" d="M146.7,1000h69c0-10.1,6.6-20.9,17.4-37.7,18.2-28.2,43-66.9,30.4-125.7-14.2-65.8-53-96.7-81.3-119.2-24.3-19.3-36.1-29.6-38.9-50.8-9.3-71.6,45.4-97.3,135.4-133.4,34.5-13.8,70.1-28.1,99.9-47.5,27.5-17.9,50.3-44.1,65.8-75.8,15.6-31.8,22.7-66.8,20.7-101.4-2-33.9-12.9-66.7-31.8-94.8-20.7-30.9-50.4-56.1-88.2-74.9-50.6-25.1-86.5-50.8-106.9-76.3C222.7,42.9,215.7,23.7,215.7,0h-69c0,39.3,12.3,73.8,37.6,105.5,27.1,33.9,69.6,64.9,130.1,95,50,24.9,79.1,64.6,81.8,111.9,2.6,45.8-19.6,92.2-55.3,115.4-24.1,15.7-55.1,28.1-87.9,41.3-44.2,17.7-89.9,36.1-124.5,65.2-43.1,36.3-61.2,83.9-53.7,141.3,6.5,49.9,37.3,74.3,64.4,95.9,25.7,20.4,47.8,38,56.8,79.7,6.7,31-5.5,49.9-20.9,73.9-13.3,20.7-28.4,44.1-28.4,75Z"/>
      <path class="st1" d="M164,1000h34.5c0-15.7,9.3-30.2,20.2-47,17.5-27.1,39.2-60.9,28-112.7-12.9-59.8-47.4-87.3-75.2-109.4-23.2-18.4-41.5-33-45.3-62.1-5.2-39.9,6.1-70,35.7-95,28.2-23.7,70-40.5,110.4-56.7,33.7-13.5,68.5-27.5,96.9-45.9,24.9-16.2,45.6-40,59.7-68.9,14.3-29.1,20.8-61.2,19-92.9-1.8-30.9-11.8-60.7-28.9-86.2-19-28.4-46.5-51.6-81.6-69.1-53.6-26.6-90.4-53.1-112.7-80.9C206.8,50.7,198.5,27.5,198.5,0h-34.5c0,73.6,48.8,130.7,158.1,185,55.8,27.7,88.3,72.6,91.4,126.4,3,51.8-22.4,104.4-63.1,130.9-25.5,16.6-57.3,29.3-90.9,42.8-42.9,17.2-87.3,35-119.8,62.3-38.9,32.8-54.5,73.9-47.7,125.8,5.6,43,32.3,64.2,58,84.6,27.1,21.5,52.7,41.9,62.9,89.6,8.2,37.9-7.1,61.7-23.3,86.8-12.6,19.6-25.6,39.9-25.6,65.7Z"/>
    </g>
  </g>
  <g id="Layer_4" class="st2">
    <path class="st3" d="M377.4,1000h-69c0-32.3,6-58.7,18.4-80.6,10.8-19,25.7-34.4,48.5-49.8,30.9-20.9,47.8-48.3,47.6-77.2-.3-29.7-18.4-58.5-49.8-78.9-44.2-28.8-54.5-70-62.7-103.1-10.2-40.8-16.9-67.7-78.8-84.3-69.9-18.8-121-44.7-156.2-79.5-35-34.5-55.7-78.7-63.5-135.2-7-51.2,3.6-96.8,30.6-131.7,28.8-37.2,74.3-60.3,131.5-67,124-14.4,134.4-63.6,134.4-112.7h69c0,50.2-13.3,88.8-40.8,118.1-32.1,34.1-82.6,54.8-154.6,63.2-38.4,4.5-67.8,18.6-85,40.7-15.7,20.2-21.3,47.2-16.8,80.1,9.6,69.8,42,123.3,169.2,157.4,101.2,27.2,116.7,89.1,127.9,134.3,7.6,30.6,12.9,48.6,33.4,61.9,51.1,33.3,80.7,82.9,81.2,136.1.2,25.8-6.4,50.6-19.6,73.8-13.4,23.4-33,44-58.3,61.1-24.8,16.8-36.6,32-36.6,73.3Z"/>
    <path class="st1" d="M360.2,1000h-34.5c0-29.3,5.3-52.9,16.2-72.1,9.4-16.6,22.7-30.2,43.2-44,35.9-24.3,55.5-56.8,55.2-91.6-.3-35.6-21.3-69.6-57.6-93.2-38.6-25.1-47.5-61.1-55.4-92.8-10.4-41.6-19.3-77.6-91.1-96.8-130.7-35.1-192.6-95-207.1-200.4-6.4-46.5,3-87.6,27.2-118.8,25.9-33.4,67.4-54.3,119.9-60.4,59.3-6.9,99.5-22.4,122.9-47.2,18.3-19.5,26.8-45.7,26.8-82.6h34.5c0,46.2-11.5,80-36.1,106.2-29.2,31-76.3,50-144,57.9-43.1,5-76.5,21.4-96.6,47.3-18.6,24-25.4,55.3-20.3,93,12.6,91.9,63.6,140,181.8,171.7,40.5,10.9,69.1,28.2,87.6,53,16.4,22,22.3,45.8,28,68.8,7.3,29.2,13.6,54.5,40.8,72.2,46.2,30.1,72.9,74.5,73.3,121.8.4,46.7-24.6,89.5-70.3,120.5-28,18.9-44.2,39.3-44.2,87.6Z"/>
  </g>
</svg>