<?xml version="1.0" encoding="UTF-8"?>
<svg xmlns="http://www.w3.org/2000/svg" version="1.1" viewBox="0 0 500 1000">
  <!-- Generator: Adobe Illustrator 29.1.0, SVG Export Plug-In . SVG Version: 2.1.0 Build 142)  -->
  <defs>
    <style>
      .st0 {
        fill: #2e3192;
        stroke: #2e3192;
      }

      .st0, .st1, .st2 {
        stroke-miterlimit: 10;
      }

      .st1 {
        stroke: #f7d2ce;
        stroke-width: 69px;
      }

      .st1, .st2 {
        fill: none;
      }

      .st3 {
        fill: #ffaeae;
      }

      .st2 {
        stroke: #ffaeae;
        stroke-width: 34.5px;
      }

      .st4 {
        display: none;
      }

      .st5 {
        fill: #f7d2ce;
      }
    </style>
  </defs>
  <g id="Layer_1" class="st4">
    <line class="st0" x1="357.4" y1="1000" x2="357.4"/>
  </g>
  <g id="Layer_2">
    <g id="Layer_3">
      <path class="st5" d="M391.9,1000h-69c0-10.1-6.6-20.9-17.4-37.7-18.2-28.2-43-66.9-30.4-125.7,14.2-65.8,53-96.7,81.3-119.2,24.3-19.3,36.1-29.6,38.9-50.8,9.3-71.6-45.4-97.3-135.4-133.4-34.5-13.8-70.1-28.1-99.9-47.5-27.5-17.9-50.3-44.1-65.8-75.8-15.6-31.8-22.7-66.8-20.7-101.4,2-33.9,12.9-66.7,31.8-94.8,20.7-30.9,50.4-56.1,88.2-74.9,50.6-25.1,86.5-50.8,106.9-76.3,15.6-19.5,22.5-38.7,22.5-62.4h69c0,39.3-12.3,73.8-37.6,105.5-27.1,33.9-69.6,64.9-130.1,95-50,24.9-79.1,64.6-81.8,111.9-2.6,45.8,19.6,92.2,55.3,115.4,24.1,15.7,55.1,28.1,87.9,41.3,44.2,17.7,89.9,36.1,124.5,65.2,43.1,36.3,61.2,83.9,53.7,141.3-6.5,49.9-37.3,74.3-64.4,95.9-25.7,20.4-47.8,38-56.8,79.7-6.7,31,5.5,49.9,20.9,73.9,13.3,20.7,28.4,44.1,28.4,75Z"/>
    </g>
    <path class="st3" d="M374.7,1000h-34.5c0-15.7-9.3-30.2-20.2-47-17.5-27.1-39.2-60.9-28-112.8,12.9-59.8,47.4-87.3,75.2-109.4,23.2-18.4,41.5-33,45.3-62.1,5.2-39.9-6.1-70-35.7-95-28.2-23.7-70-40.5-110.4-56.7-33.7-13.5-68.5-27.5-96.9-45.9-24.9-16.2-45.6-40-59.7-68.9-14.3-29.1-20.8-61.2-19-92.9,1.8-30.9,11.8-60.7,28.9-86.2,19-28.4,46.5-51.6,81.6-69.1,53.6-26.6,90.4-53.1,112.7-80.9,18-22.4,26.3-45.7,26.3-73.2h34.5c0,73.6-48.8,130.7-158.1,185-55.8,27.7-88.3,72.6-91.4,126.4-3,51.8,22.4,104.4,63.1,130.9,25.5,16.6,57.3,29.3,90.9,42.8,42.9,17.2,87.3,35,119.8,62.3,38.9,32.8,54.5,73.9,47.7,125.8-5.6,43-32.3,64.2-58,84.6-27.1,21.5-52.7,41.9-62.9,89.6-8.2,37.9,7.1,61.7,23.3,86.8,12.6,19.6,25.6,39.9,25.6,65.7Z"/>
  </g>
  <g id="Layer_4" class="st4">
    <path class="st1" d="M342.9,0c0,71.7-28,149.8-164.9,147-59.1-1.2-144.6,67.4-132,159.7s65,151.4,194.4,186.1c139.8,37.5,72.5,140.4,151.5,191.8,82,53.4,91.5,153.5,2.7,213.6-31.8,21.5-51.8,46.4-51.8,101.9"/>
    <path class="st2" d="M342.9,0c0,71.7-28,149.8-164.9,147-59.1-1.2-144.6,67.4-132,159.7s65,151.4,194.4,186.1c139.8,37.5,72.5,140.4,151.5,191.8,82,53.4,91.5,153.5,2.7,213.6-31.8,21.5-51.8,46.4-51.8,101.9"/>
  </g>
</svg>