<svg width="37" height="37" viewBox="0 0 37 37" fill="none" xmlns="http://www.w3.org/2000/svg">
<path d="M33.455 28.3568C33.455 28.8968 33.335 29.4518 33.08 29.9918C32.825 30.5318 32.495 31.0418 32.06 31.5218C31.325 32.3318 30.515 32.9168 29.6 33.2918C28.7 33.6668 27.725 33.8618 26.675 33.8618C25.145 33.8618 23.51 33.5018 21.785 32.7668C20.06 32.0318 18.335 31.0418 16.625 29.7968C14.9 28.5368 13.265 27.1418 11.705 25.5968C10.16 24.0368 8.765 22.4018 7.52 20.6918C6.29 18.9818 5.3 17.2718 4.58 15.5768C3.86 13.8668 3.5 12.2318 3.5 10.6718C3.5 9.65182 3.68 8.67682 4.04 7.77682C4.4 6.86182 4.97 6.02182 5.765 5.27182C6.725 4.32682 7.775 3.86182 8.885 3.86182C9.305 3.86182 9.725 3.95182 10.1 4.13182C10.49 4.31182 10.835 4.58182 11.105 4.97182L14.585 9.87682C14.855 10.2518 15.05 10.5968 15.185 10.9268C15.32 11.2418 15.395 11.5568 15.395 11.8418C15.395 12.2018 15.29 12.5618 15.08 12.9068C14.885 13.2518 14.6 13.6118 14.24 13.9718L13.1 15.1568C12.935 15.3218 12.86 15.5168 12.86 15.7568C12.86 15.8768 12.875 15.9818 12.905 16.1018C12.95 16.2218 12.995 16.3118 13.025 16.4018C13.295 16.8968 13.76 17.5418 14.42 18.3218C15.095 19.1018 15.815 19.8968 16.595 20.6918C17.405 21.4868 18.185 22.2218 18.98 22.8968C19.76 23.5568 20.405 24.0068 20.915 24.2768C20.99 24.3068 21.08 24.3518 21.185 24.3968C21.305 24.4418 21.425 24.4568 21.56 24.4568C21.815 24.4568 22.01 24.3668 22.175 24.2018L23.315 23.0768C23.69 22.7018 24.05 22.4168 24.395 22.2368C24.74 22.0268 25.085 21.9218 25.46 21.9218C25.745 21.9218 26.045 21.9818 26.375 22.1168C26.705 22.2518 27.05 22.4468 27.425 22.7018L32.39 26.2268C32.78 26.4968 33.05 26.8118 33.215 27.1868C33.365 27.5618 33.455 27.9368 33.455 28.3568Z" stroke="black" stroke-width="3" stroke-miterlimit="10"/>
<path d="M28.25 14.3618C28.25 13.4618 27.545 12.0818 26.495 10.9568C25.535 9.92182 24.26 9.11182 23 9.11182" stroke="black" stroke-width="3" stroke-linecap="round" stroke-linejoin="round"/>
<path d="M33.5 14.3618C33.5 8.55682 28.805 3.86182 23 3.86182" stroke="black" stroke-width="3" stroke-linecap="round" stroke-linejoin="round"/>
</svg>
