<svg width="37" height="37" viewBox="0 0 37 37" fill="none" xmlns="http://www.w3.org/2000/svg">
<g clip-path="url(#clip0_504_906)">
<path d="M18.5 4.10322C23.3094 4.10322 23.8789 4.12432 25.7703 4.20869C27.5281 4.28603 28.4773 4.58135 29.1102 4.82744C29.9469 5.15088 30.5516 5.54463 31.1773 6.17041C31.8102 6.80322 32.1969 7.40088 32.5203 8.2376C32.7664 8.87041 33.0617 9.82666 33.1391 11.5774C33.2234 13.4759 33.2445 14.0454 33.2445 18.8478C33.2445 23.6571 33.2234 24.2267 33.1391 26.1181C33.0617 27.8759 32.7664 28.8251 32.5203 29.4579C32.1969 30.2946 31.8031 30.8993 31.1773 31.5251C30.5445 32.1579 29.9469 32.5446 29.1102 32.8681C28.4773 33.1142 27.5211 33.4095 25.7703 33.4868C23.8719 33.5712 23.3023 33.5923 18.5 33.5923C13.6906 33.5923 13.1211 33.5712 11.2297 33.4868C9.47188 33.4095 8.52266 33.1142 7.88984 32.8681C7.05313 32.5446 6.44844 32.1509 5.82266 31.5251C5.18984 30.8923 4.80312 30.2946 4.47969 29.4579C4.23359 28.8251 3.93828 27.8688 3.86094 26.1181C3.77656 24.2196 3.75547 23.6501 3.75547 18.8478C3.75547 14.0384 3.77656 13.4688 3.86094 11.5774C3.93828 9.81963 4.23359 8.87041 4.47969 8.2376C4.80312 7.40088 5.19688 6.79619 5.82266 6.17041C6.45547 5.5376 7.05313 5.15088 7.88984 4.82744C8.52266 4.58135 9.47891 4.28603 11.2297 4.20869C13.1211 4.12432 13.6906 4.10322 18.5 4.10322ZM18.5 0.861816C13.6133 0.861816 13.0016 0.88291 11.082 0.967285C9.16953 1.05166 7.85469 1.36104 6.71563 1.804C5.52734 2.26807 4.52188 2.87979 3.52344 3.88525C2.51797 4.88369 1.90625 5.88916 1.44219 7.07041C0.999219 8.2165 0.689844 9.52431 0.605469 11.4368C0.521094 13.3634 0.5 13.9751 0.5 18.8618C0.5 23.7485 0.521094 24.3603 0.605469 26.2798C0.689844 28.1923 0.999219 29.5071 1.44219 30.6462C1.90625 31.8345 2.51797 32.8399 3.52344 33.8384C4.52188 34.8368 5.52734 35.4556 6.70859 35.9126C7.85469 36.3556 9.1625 36.6649 11.075 36.7493C12.9945 36.8337 13.6062 36.8548 18.493 36.8548C23.3797 36.8548 23.9914 36.8337 25.9109 36.7493C27.8234 36.6649 29.1383 36.3556 30.2773 35.9126C31.4586 35.4556 32.4641 34.8368 33.4625 33.8384C34.4609 32.8399 35.0797 31.8345 35.5367 30.6532C35.9797 29.5071 36.2891 28.1993 36.3734 26.2868C36.4578 24.3673 36.4789 23.7556 36.4789 18.8688C36.4789 13.9821 36.4578 13.3704 36.3734 11.4509C36.2891 9.53838 35.9797 8.22353 35.5367 7.08447C35.0938 5.88916 34.482 4.88369 33.4766 3.88525C32.4781 2.88682 31.4727 2.26807 30.2914 1.81104C29.1453 1.36807 27.8375 1.05869 25.925 0.974316C23.9984 0.88291 23.3867 0.861816 18.5 0.861816Z" fill="black"/>
<path d="M18.5 9.61572C13.3953 9.61572 9.25391 13.7571 9.25391 18.8618C9.25391 23.9665 13.3953 28.1079 18.5 28.1079C23.6047 28.1079 27.7461 23.9665 27.7461 18.8618C27.7461 13.7571 23.6047 9.61572 18.5 9.61572ZM18.5 24.8595C15.1883 24.8595 12.5023 22.1735 12.5023 18.8618C12.5023 15.5501 15.1883 12.8642 18.5 12.8642C21.8117 12.8642 24.4977 15.5501 24.4977 18.8618C24.4977 22.1735 21.8117 24.8595 18.5 24.8595Z" fill="black"/>
<path d="M30.2703 9.25015C30.2703 10.4455 29.3 11.4087 28.1117 11.4087C26.9164 11.4087 25.9531 10.4384 25.9531 9.25015C25.9531 8.05484 26.9234 7.09155 28.1117 7.09155C29.3 7.09155 30.2703 8.06187 30.2703 9.25015Z" fill="black"/>
</g>
<defs>
<clipPath id="clip0_504_906">
<rect width="36" height="36" fill="white" transform="translate(0.5 0.861816)"/>
</clipPath>
</defs>
</svg>
