<svg width="369" height="272" viewBox="0 0 369 272" fill="none" xmlns="http://www.w3.org/2000/svg">
<path d="M3.36426 53.4471C91.2015 42.7648 261.653 67.8129 240.762 253.464" stroke="#F7D2CE" stroke-width="40"/>
<path d="M3.36426 53.4471C91.2015 42.7648 261.653 67.8129 240.762 253.464" stroke="#FFAEAE" stroke-width="20"/>
<ellipse cx="44.1748" cy="44.1749" rx="44.1748" ry="44.1749" transform="matrix(-0.707646 0.697459 -0.738684 -0.68369 268.716 170.373)" fill="#D71330"/>
<path d="M227.877 201.671C214.973 214.387 194.616 215.176 182.41 203.881C170.205 192.586 170.392 173.132 183.296 160.417C196.2 147.701 216.556 146.911 228.762 158.206C240.967 169.501 240.781 188.955 227.877 201.671Z" stroke="white" stroke-width="4"/>
<ellipse cx="13.3005" cy="11.5845" rx="13.3005" ry="11.5845" transform="matrix(-0.707767 0.697347 -0.738797 -0.683579 223.062 188.581)" fill="white"/>
<ellipse cx="22.7632" cy="22.7627" rx="22.7632" ry="22.7627" transform="matrix(-0.760744 -0.659189 0.68403 -0.720476 108.293 198.029)" fill="#D71330"/>
<path d="M91.167 177.668C84.3759 171.782 83.6337 162.384 89.0409 156.688C94.4481 150.991 104.309 150.783 111.101 156.668C117.892 162.554 118.635 171.953 113.227 177.649C107.82 183.346 97.9583 183.554 91.167 177.668Z" stroke="white" stroke-width="4"/>
<ellipse cx="6.8489" cy="5.96523" rx="6.8489" ry="5.96523" transform="matrix(-0.760633 -0.659305 0.683904 -0.720585 97.459 175.89)" fill="white"/>
<ellipse cx="20.7333" cy="20.7328" rx="20.7333" ry="20.7328" transform="matrix(-0.760744 -0.659189 0.68403 -0.720476 336.622 236.937)" fill="#D71330"/>
<path d="M321.145 218.265C315.024 212.96 314.373 204.509 319.222 199.401C324.071 194.293 332.936 194.09 339.057 199.395C345.178 204.699 345.829 213.149 340.981 218.258C336.132 223.366 327.266 223.569 321.145 218.265Z" stroke="white" stroke-width="4"/>
<ellipse cx="6.23815" cy="5.43327" rx="6.23815" ry="5.43327" transform="matrix(-0.760633 -0.659305 0.683904 -0.720585 326.754 216.772)" fill="white"/>
<ellipse cx="31.4847" cy="32.9695" rx="31.4847" ry="32.9695" transform="matrix(0.227483 -0.969149 0.982963 0.206489 79.6416 95.77)" fill="#D71330"/>
<path d="M93.0218 61.5904C95.8942 49.3556 107.939 41.5846 119.829 44.0814C131.719 46.5785 139.156 58.4411 136.283 70.6761C133.411 82.9108 121.365 90.6809 109.475 88.1839C97.5855 85.6866 90.1496 73.825 93.0218 61.5904Z" stroke="white" stroke-width="4"/>
<ellipse cx="9.47155" cy="8.64146" rx="9.47155" ry="8.64146" transform="matrix(0.227561 -0.969132 0.982981 0.206409 100.701 67.8652)" fill="white"/>
</svg>
