<svg width="316" height="121" viewBox="0 0 316 121" fill="none" xmlns="http://www.w3.org/2000/svg">
<ellipse cx="150.5" cy="49.5" rx="50.5" ry="49.5" fill="#ACDEA0"/>
<path d="M157 8C175.804 8 191 23.0247 191 41.5C191 59.9753 175.804 75 157 75C138.196 75 123 59.9753 123 41.5C123 23.0247 138.196 8 157 8Z" stroke="white" stroke-width="4"/>
<circle cx="162.5" cy="34.5" r="12.5" fill="white" stroke="white" stroke-width="4"/>
<ellipse cx="272.5" cy="78" rx="43.5" ry="43" fill="#77B89E"/>
<path d="M270 62C286.047 62 299 74.7904 299 90.5C299 106.21 286.047 119 270 119C253.953 119 241 106.21 241 90.5C241 74.7904 253.953 62 270 62Z" stroke="white" stroke-width="4"/>
<circle cx="268.5" cy="99.5" r="10.5" fill="white" stroke="white" stroke-width="4"/>
<ellipse cx="45" cy="72.5" rx="45" ry="44.5" fill="#77B89E"/>
<ellipse cx="118" cy="96.5" rx="18" ry="17.5" fill="#4C9E7D"/>
</svg>
