<svg width="336" height="84" viewBox="0 0 336 84" fill="none" xmlns="http://www.w3.org/2000/svg">
<circle cx="245" cy="48.8999" r="14" fill="#F0F6EE"/>
<circle cx="13.5" cy="67.3999" r="13.5" fill="#F0F6EE"/>
<circle cx="98" cy="15.8999" r="15" fill="#F0F6EE"/>
<circle cx="64" cy="25.8999" r="5" fill="#FF5757"/>
<ellipse cx="102.5" cy="11.8999" rx="4.5" ry="4" fill="#77B89E"/>
<ellipse cx="242.5" cy="54.3999" rx="4.5" ry="3.5" fill="#77B89E"/>
<path d="M34.04 37.0999H41.28V45.4599H47.48V37.0999H54.72V59.8999H47.48V50.0599H41.28V59.8999H34.04V37.0999ZM58.8056 37.0999H66.0056V59.8999H58.8056V37.0999ZM69.9747 37.0999H77.1747V54.6199H86.4947V59.8999H69.9747V37.0999ZM88.9981 37.0999H96.1981V54.6199H105.518V59.8999H88.9981V37.0999ZM107.902 37.0999H124.502V41.8999H115.102V46.0599H123.022V50.3799H115.102V55.0199H124.462V59.8999H107.902V37.0999ZM148.315 59.8999H140.755L139.395 54.1399C139.341 53.9266 139.248 53.5666 139.115 53.0599C139.008 52.5266 138.875 52.1399 138.715 51.8999C138.555 51.6332 138.328 51.4599 138.035 51.3799C137.288 51.4066 136.195 51.4199 134.755 51.4199V59.8999H127.555V37.2999C130.781 37.0599 133.795 36.9399 136.595 36.9399C139.128 36.9399 141.181 37.1532 142.755 37.5799C144.328 37.9799 145.501 38.6866 146.275 39.6999C147.075 40.6866 147.475 42.0466 147.475 43.7799C147.475 45.4066 147.101 46.6866 146.355 47.6199C145.608 48.5266 144.408 49.0732 142.755 49.2599V49.4999C143.688 49.5799 144.461 49.8866 145.075 50.4199C145.715 50.9266 146.141 51.5799 146.355 52.3799L148.315 59.8999ZM134.755 46.8999C134.995 46.9266 135.461 46.9399 136.155 46.9399C138.208 46.9399 139.408 46.7666 139.755 46.4199C140.075 46.0999 140.235 45.3532 140.235 44.1799C140.235 43.0866 139.941 42.3399 139.355 41.9399C138.795 41.5399 137.861 41.3399 136.555 41.3399C136.261 41.3399 135.661 41.3666 134.755 41.4199V46.8999ZM169.958 39.2199C172.171 41.0866 173.278 44.0599 173.278 48.1399C173.278 51.9532 172.344 54.9532 170.478 57.1399C168.638 59.3266 165.771 60.4199 161.878 60.4199C160.758 60.4199 159.811 60.3666 159.038 60.2599L157.438 63.7799L151.878 61.3399L153.358 57.9799C151.091 56.0866 149.958 52.9399 149.958 48.5399C149.958 44.4599 151.051 41.4866 153.238 39.6199C155.424 37.7532 158.318 36.8199 161.918 36.8199C162.851 36.8199 163.651 36.8732 164.318 36.9799L165.918 33.3399L171.478 35.7799L169.958 39.2199ZM164.798 53.9799C165.358 52.8866 165.638 51.0999 165.638 48.6199C165.638 46.1932 165.358 44.4332 164.798 43.3399C164.238 42.2199 163.211 41.6332 161.718 41.5799C161.158 41.5799 160.571 41.6466 159.958 41.7799C159.371 41.8866 158.998 42.0466 158.838 42.2599C158.518 42.6332 158.264 43.4332 158.078 44.6599C157.918 45.8599 157.838 47.1799 157.838 48.6199C157.838 50.8599 158.051 52.4999 158.478 53.5399C158.771 54.3132 159.184 54.8732 159.718 55.2199C160.251 55.5399 160.918 55.6999 161.718 55.6999C162.464 55.6999 163.091 55.5799 163.598 55.3399C164.104 55.0732 164.504 54.6199 164.798 53.9799ZM184.656 37.0999C187.776 37.0999 190.323 37.3932 192.296 37.9799C194.296 38.5666 195.843 39.6732 196.936 41.2999C198.056 42.9266 198.616 45.2599 198.616 48.2999C198.616 51.5532 198.03 54.0332 196.856 55.7399C195.683 57.4199 194.11 58.5399 192.136 59.0999C190.163 59.6332 187.67 59.8999 184.656 59.8999H176.656V37.0999H184.656ZM190.016 54.4599C190.336 54.1399 190.563 53.3132 190.696 51.9799C190.83 50.6466 190.896 49.4199 190.896 48.2999C190.896 46.8866 190.79 45.7666 190.576 44.9399C190.39 44.0866 190.043 43.4066 189.536 42.8999C188.736 42.0199 187.363 41.5799 185.416 41.5799C185.07 41.5799 184.55 41.6066 183.856 41.6599V54.9399C184.31 54.9932 185.016 55.0199 185.976 55.0199C186.963 55.0199 187.83 54.9799 188.576 54.8999C189.35 54.7932 189.83 54.6466 190.016 54.4599ZM222.628 47.8599C224.441 48.0732 225.735 48.6866 226.508 49.6999C227.281 50.6866 227.668 51.8866 227.668 53.2999C227.668 54.1799 227.535 55.0199 227.268 55.8199C227.001 56.5932 226.681 57.2599 226.308 57.8199C225.935 58.3532 225.615 58.6999 225.348 58.8599C224.281 59.5532 221.028 59.8999 215.588 59.8999H207.828V37.0999H217.228C219.361 37.0999 221.081 37.2199 222.388 37.4599C223.721 37.6732 224.801 38.1799 225.628 38.9799C226.455 39.7532 226.868 40.9399 226.868 42.5399C226.868 43.9266 226.521 45.0466 225.828 45.8999C225.161 46.7532 224.095 47.3399 222.628 47.6599V47.8599ZM219.428 41.9399C219.161 41.6732 218.841 41.5132 218.468 41.4599C218.121 41.3799 217.561 41.3399 216.788 41.3399C216.015 41.3399 215.428 41.3532 215.028 41.3799V46.2599H215.428C215.561 46.2599 216.121 46.2599 217.108 46.2599C218.095 46.2599 218.748 46.1932 219.068 46.0599C219.308 45.9532 219.521 45.6732 219.708 45.2199C219.921 44.7666 220.028 44.2732 220.028 43.7399C220.028 42.9399 219.828 42.3399 219.428 41.9399ZM220.108 55.2999C220.295 55.1399 220.441 54.8466 220.548 54.4199C220.681 53.9666 220.748 53.5132 220.748 53.0599C220.748 52.4999 220.668 51.9799 220.508 51.4999C220.375 50.9932 220.188 50.6332 219.948 50.4199C219.708 50.1799 219.361 50.0199 218.908 49.9399C218.481 49.8599 217.748 49.8199 216.708 49.8199C216.041 49.8199 215.481 49.8332 215.028 49.8599V55.6599C216.281 55.6866 217.401 55.6732 218.388 55.6199C219.375 55.5399 219.948 55.4332 220.108 55.2999ZM274.198 59.8999H265.198L259.318 37.0999H266.998L270.038 53.8599H270.238L273.478 37.0999H280.998L284.318 53.8599H284.438L287.518 37.0999H294.878L288.998 59.8999H280.038L277.318 45.3399H277.078L274.198 59.8999ZM297.358 37.0999H304.558V54.6199H313.878V59.8999H297.358V37.0999ZM323.021 43.2599C323.021 43.8199 323.301 44.2599 323.861 44.5799C324.448 44.8999 325.354 45.2466 326.581 45.6199C328.048 46.0999 329.248 46.5666 330.181 47.0199C331.141 47.4732 331.968 48.1799 332.661 49.1399C333.381 50.0999 333.741 51.3532 333.741 52.8999C333.741 57.8599 330.514 60.3399 324.061 60.3399C322.994 60.3399 321.688 60.2466 320.141 60.0599C318.621 59.8732 317.234 59.6332 315.981 59.3399C316.034 58.7799 316.141 57.9666 316.301 56.8999C316.488 55.8066 316.661 54.9932 316.821 54.4599C317.754 54.5932 319.154 54.7532 321.021 54.9399C322.914 55.1266 324.341 55.2199 325.301 55.2199C325.861 55.2199 326.194 55.1799 326.301 55.0999C326.461 54.9932 326.581 54.8199 326.661 54.5799C326.768 54.3132 326.821 54.0866 326.821 53.8999C326.821 53.3666 326.568 52.9666 326.061 52.6999C325.554 52.4066 324.688 52.0599 323.461 51.6599C321.994 51.2066 320.781 50.7399 319.821 50.2599C318.861 49.7799 318.021 49.0332 317.301 48.0199C316.581 47.0066 316.221 45.6732 316.221 44.0199C316.221 42.8466 316.488 41.6999 317.021 40.5799C317.554 39.4332 318.101 38.6599 318.661 38.2599C319.088 37.9666 319.968 37.6866 321.301 37.4199C322.634 37.1532 323.888 37.0199 325.061 37.0199C328.048 37.0199 330.488 37.2999 332.381 37.8599C332.354 38.3932 332.261 39.1266 332.101 40.0599C331.968 40.9932 331.821 41.8466 331.661 42.6199L330.741 42.5799C327.274 42.3399 325.061 42.2199 324.101 42.2199C323.701 42.2199 323.474 42.2332 323.421 42.2599C323.314 42.3132 323.221 42.4332 323.141 42.6199C323.061 42.8066 323.021 43.0199 323.021 43.2599Z" fill="black"/>
</svg>
